Told in one fluid shot, a tale which floats like a dreamlike journey through the majestic spaces of the Hermitage in St. Petersburg, engaging real and imagined characters from Russian and European history. The nameless protagonist, a 19th-century French diplomat, guides the audience through a lost, sumptuous dream that was the Enlightenment period. The film, staged among some of the Western Art tradition's greatest masterpieces, climaxes in a pageant of color, motion, and music. For Sokurov, the Hermitage--home to generations of Romonovs and repository of so much Russian history--is the ark of the Russian soul, guarding it affectionately until the world sees better days.

General
Unique ID                                : 225362336552064269778757596029244576420 (0xA98B350D0AFE19FD99FBE7DD426692A4)
Complete name                            : Russkiy kovcheg (aka Russian Ark) (2002-DVD-x264).mkv
Format                                   : Matroska
Format version                           : Version 2
File size                                : 1.98 GiB
Duration                                 : 1h 35mn
Overall bit rate                         : 2 974 Kbps
Encoded date                             : UTC 2011-04-14 12:20:18
Writing application                      : mkvmerge v4.6.0 ('Still Crazy After All These Years') built on Mar 10 2011 02:50:32
Writing library                          : libebml v1.2.0 + libmatroska v1.1.0

Video
ID                                       : 1
Format                                   : AVC
Format/Info                              : Advanced Video Codec
Format profile                           : High@L4.0
Format settings, CABAC                   : Yes
Format settings, ReFrames                : 16 frames
Codec ID                                 : V_MPEG4/ISO/AVC
Duration                                 : 1h 35mn
Bit rate                                 : 2 723 Kbps
Width                                    : 716 pixels
Height                                   : 568 pixels
Display aspect ratio                     : 16:9
Original display aspect ratio            : 16:9
Frame rate mode                          : Constant
Frame rate                               : 25.000 fps
Color space                              : YUV
Chroma subsampling                       : 4:2:0
Bit depth                                : 8 bits
Scan type                                : Progressive
Bits/(Pixel*Frame)                       : 0.268
Stream size                              : 1.81 GiB (92%)
Title                                    : Russkiy kovcheg (aka Russian Ark)
Writing library                          : x264 core 114 r1924 08d04a4
Encoding settings                        : cabac=1 / ref=16 / deblock=1:-3:-3 / analyse=0x3:0x133 / me=umh / subme=10 / psy=1 / psy_rd=1.00:0.00 / mixed_ref=1 / me_range=48 / chroma_me=1 / trellis=2 / 8x8dct=1 / cqm=0 / deadzone=21,11 / fast_pskip=0 / chroma_qp_offset=-2 / threads=3 / sliced_threads=0 / nr=0 / decimate=1 / interlaced=0 / constrained_intra=0 / bframes=7 / b_pyramid=2 / b_adapt=2 / b_bias=0 / direct=3 / weightb=1 / open_gop=0 / weightp=2 / keyint=250 / keyint_min=25 / scenecut=40 / intra_refresh=0 / rc_lookahead=60 / rc=crf / mbtree=1 / crf=15.9 / qcomp=0.60 / qpmin=0 / qpmax=69 / qpstep=4 / ip_ratio=1.40 / aq=2:1.00
Language                                 : Russian
Default                                  : Yes
Forced                                   : No

Audio
ID                                       : 2
Format                                   : AC-3
Format/Info                              : Audio Coding 3
Mode extension                           : CM (complete main)
Format settings, Endianness              : Big
Codec ID                                 : A_AC3
Duration                                 : 1h 35mn
Bit rate mode                            : Constant
Bit rate                                 : 192 Kbps
Channel(s)                               : 2 channels
Channel positions                        : Front: L R
Sampling rate                            : 48.0 KHz
Bit depth                                : 16 bits
Compression mode                         : Lossy
Stream size                              : 131 MiB (6%)
Title                                    : Russkiy kovcheg (aka Russian Ark)
Language                                 : Russian
Default                                  : Yes
Forced                                   : No

Text
ID                                       : 3
Format                                   : UTF-8
Codec ID                                 : S_TEXT/UTF8
Codec ID/Info                            : UTF-8 Plain Text
Title                                    : English subtitles
Language                                 : English
Default                                  : Yes
Forced                                   : No

Menu
00:00:00.000                             : Arrival
00:09:26.800                             : Rehearsal
00:13:59.800                             : Exploring the Palace
00:23:07.880                             : The Old Masters
00:32:10.240                             : The Apostles
00:38:49.600                             : Speaking to the Painting
00:44:44.760                             : 20th Century History
00:49:27.120                             : Catherine II
00:54:33.400                             : The Ambassador of Persia
01:00:48.840                             : The Salons of the Hermitage
01:08:08.240                             : The Last Tsar
01:11:37.800                             : The Great Royal Ball
01:21:50.880                             : Farewell
01:29:45.120                             : End Titles

